<svg width="31.329102" height="31.000000" viewBox="0 0 31.3291 31" fill="none" xmlns="http://www.w3.org/2000/svg" xmlns:xlink="http://www.w3.org/1999/xlink">
	<desc>
			Created with Pixso.
	</desc>
	<defs/>
	<path id="INSTAGRAM 3" d="M30.5 5.34C30.09 4.32 29.56 3.46 28.69 2.59C27.82 1.73 26.94 1.2 25.91 0.8C24.92 0.42 23.78 0.17 22.11 0.09C20.44 0.01 19.91 0 15.66 0C11.4 0 10.87 0.01 9.2 0.09C7.54 0.17 6.4 0.42 5.4 0.81C4.37 1.21 3.49 1.74 2.62 2.6C1.75 3.47 1.22 4.33 0.81 5.35C0.43 6.33 0.17 7.46 0.09 9.1C0.01 10.76 0 11.29 0 15.5C0 19.7 0.01 20.23 0.09 21.89C0.17 23.54 0.43 24.67 0.82 25.65C1.23 26.67 1.76 27.53 2.63 28.4C3.5 29.26 4.38 29.79 5.41 30.19C6.4 30.57 7.54 30.83 9.21 30.9C10.88 30.98 11.41 31 15.66 31C19.92 31 20.45 30.98 22.12 30.9C23.78 30.83 24.92 30.57 25.92 30.19C26.95 29.79 27.83 29.26 28.7 28.4C29.57 27.53 30.1 26.67 30.51 25.65C30.89 24.67 31.16 23.54 31.23 21.89C31.31 20.23 31.32 19.7 31.32 15.5C31.32 11.29 31.31 10.76 31.23 9.1C31.15 7.46 30.88 6.33 30.5 5.34ZM15.66 23.46C11.21 23.46 7.61 19.9 7.61 15.5C7.61 11.09 11.21 7.53 15.66 7.53C20.1 7.53 23.7 11.09 23.7 15.5C23.7 19.9 20.1 23.46 15.66 23.46ZM24.02 9.09C22.98 9.09 22.14 8.25 22.14 7.22C22.14 6.2 22.98 5.36 24.02 5.36C25.06 5.36 25.91 6.2 25.91 7.22C25.9 8.25 25.06 9.09 24.02 9.09ZM20.88 15.5C20.88 18.35 18.55 20.66 15.66 20.66C12.78 20.66 10.45 18.35 10.45 15.5C10.45 12.64 12.78 10.33 15.66 10.33C18.54 10.33 20.88 12.64 20.88 15.5Z" fill="#B1B1B1" fill-opacity="1.000000" fill-rule="evenodd"/>
</svg>
