<svg width="33.227539" height="25.364258" viewBox="0 0 33.2275 25.3643" fill="none" xmlns="http://www.w3.org/2000/svg" xmlns:xlink="http://www.w3.org/1999/xlink">
	<desc>
			Created with Pixso.
	</desc>
	<defs/>
	<path id="TELEGRAM 2" d="M33.21 1.78C33.12 2.88 32.44 6.73 31.77 10.88L29.64 23.2C29.64 23.2 29.48 25.01 28.03 25.31C26.59 25.63 24.2 24.21 23.78 23.9C23.44 23.66 17.41 20.13 15.2 18.41C14.61 17.94 13.92 16.99 15.28 15.9C18.34 13.31 22 10.09 24.2 8.06C25.22 7.12 26.24 4.92 22 7.59L10.02 15.04C10.02 15.04 8.66 15.82 6.11 15.12C3.56 14.41 0.59 13.47 0.59 13.47C0.59 13.47 -1.45 12.29 2.03 11.04L21.83 3.51C23.79 2.73 30.41 0.22 30.41 0.22C30.41 0.22 33.47 -0.88 33.21 1.78Z" fill="#B1B1B1" fill-opacity="1.000000" fill-rule="evenodd"/>
</svg>
