<svg width="31.329102" height="27.242188" viewBox="0 0 31.3291 27.2422" fill="none" xmlns="http://www.w3.org/2000/svg" xmlns:xlink="http://www.w3.org/1999/xlink">
	<desc>
			Created with Pixso.
	</desc>
	<defs/>
	<path id="TWITTER 3" d="M27.64 4.3C28.94 4.13 30.18 3.77 31.32 3.22C30.46 4.59 29.37 5.81 28.12 6.78C28.12 7.07 28.13 7.37 28.13 7.67C28.13 16.76 21.67 27.24 9.85 27.24C6.22 27.24 2.84 26.1 0 24.15C0.5 24.21 1.01 24.24 1.52 24.24C4.54 24.24 7.3 23.13 9.51 21.29C6.69 21.24 4.32 19.25 3.5 16.52C3.9 16.6 4.3 16.64 4.71 16.64C5.31 16.64 5.87 16.56 6.41 16.4C3.48 15.76 1.25 12.98 1.25 9.65C1.25 9.62 1.25 9.59 1.25 9.56C2.12 10.07 3.11 10.38 4.16 10.42C2.43 9.19 1.3 7.08 1.3 4.7C1.3 3.45 1.62 2.26 2.17 1.25C5.34 5.41 10.08 8.15 15.42 8.44C15.31 7.93 15.25 7.41 15.25 6.87C15.25 3.08 18.13 0 21.68 0C23.53 0 25.2 0.83 26.37 2.16C27.83 1.85 29.21 1.28 30.45 0.5C29.98 2.1 28.97 3.45 27.64 4.3Z" fill="#B1B1B1" fill-opacity="1.000000" fill-rule="evenodd"/>
</svg>
