<svg width="24.000000" height="24.000000" viewBox="0 0 24 24" fill="none" xmlns="http://www.w3.org/2000/svg" xmlns:xlink="http://www.w3.org/1999/xlink">
	<desc>
			Created with Pixso.
	</desc>
	<defs/>
	<path id="Vector" d="M23.75 3.71L10.08 17.51L4.91 12.35L6.71 10.67L10.08 14.03L22.08 2.03L23.75 3.71Z" fill="#E97522" fill-opacity="1.000000" fill-rule="nonzero"/>
	<path id="Vector" d="M23.04 7.91L21.36 9.59C21.59 10.32 21.71 11.16 21.71 12C21.71 17.51 17.28 21.83 11.87 21.83C6.36 21.83 2.04 17.4 2.04 12C2.04 6.48 6.48 2.16 11.87 2.16C13.79 2.16 15.71 2.75 17.28 3.71L18.83 2.16C16.91 0.83 14.51 0 12 0C5.4 0 0 5.4 0 12C0 18.59 5.4 24 12 24C18.59 24 24 18.59 24 12C23.75 10.55 23.51 9.12 23.04 7.91Z" fill="#E97522" fill-opacity="1.000000" fill-rule="nonzero"/>
</svg>
