<svg width="1502.837891" height="1108.002930" viewBox="0 0 1502.84 1108" fill="none" xmlns="http://www.w3.org/2000/svg" xmlns:xlink="http://www.w3.org/1999/xlink">
	<desc>
			Created with Pixso.
	</desc>
	<defs/>
	<g opacity="0.200000">
		<path id="Line 6" d="M1502.57 867.37C1434.57 879.87 1471.19 704.87 1461.07 552.37C1442.66 274.99 1340.94 370.25 1301.09 419.29C1289.98 432.96 1284.59 450.12 1283.43 467.69C1275.07 594.06 1232.93 1115.54 1116.56 915.87C1014.41 740.57 1259.56 281.37 980.06 152.87C708.91 28.21 708.34 374.12 848.7 592.57C857.19 605.78 863.32 620.45 865.43 636.01C953.87 1287.19 570.63 1153.64 492.56 882.87C473.93 818.27 256.03 321.73 223.82 183.72C137.17 -187.61 -53.61 93.01 16.74 282.65C155.21 655.89 357.86 304.22 346.66 802.74C342.19 1001.61 119.27 1087.55 45.11 846.46" stroke="#4A4A4A" stroke-opacity="1.000000" stroke-width="3.000000" stroke-dasharray="10 10"/>
	</g>
</svg>
