<svg width="1658.822266" height="1576.820312" viewBox="0 0 1658.82 1576.82" fill="none" xmlns="http://www.w3.org/2000/svg" xmlns:xlink="http://www.w3.org/1999/xlink">
	<desc>
			Created with Pixso.
	</desc>
	<defs/>
	<g opacity="0.200000">
		<path id="Line 6" d="M1303.59 1575.5C1232.77 1537.46 1418.95 1442.63 1544.21 1331.17C1782.84 1118.82 1581.42 1124.04 1510.12 1131.26C1495.17 1132.77 1481.09 1138.61 1468.69 1147.1C1362.71 1219.75 846.66 1564.85 921.33 1344.19C985.67 1154.02 1605.36 1007.33 1472.51 727.69C1339.66 448.06 1268.84 542.3 964.43 961.74C660.04 1381.19 229.82 1135.82 401.37 893.89C441.82 836.85 873.38 526.18 780.04 230.54C666.73 -128.36 670.78 5.05 510.82 156.41C278.26 376.46 543.91 422.48 318.68 761.61C208.52 927.48 -107.1 778.33 39.75 562.27" stroke="#4A4A4A" stroke-opacity="1.000000" stroke-width="3.000000" stroke-dasharray="10 10"/>
	</g>
</svg>
