<svg width="17.437500" height="17.437500" viewBox="0 0 17.4375 17.4375" fill="none" xmlns="http://www.w3.org/2000/svg" xmlns:xlink="http://www.w3.org/1999/xlink">
	<desc>
			Created with Pixso.
	</desc>
	<defs/>
	<path id="check-circle" d="M8.71 0C13.5 0 17.43 3.93 17.43 8.71C17.43 13.53 13.5 17.43 8.71 17.43C3.9 17.43 0 13.53 0 8.71C0 3.93 3.9 0 8.71 0ZM6.89 13.35C7.1 13.57 7.48 13.57 7.69 13.35L14.16 6.89C14.37 6.67 14.37 6.29 14.16 6.08L13.35 5.3C13.14 5.06 12.79 5.06 12.58 5.3L7.31 10.58L4.81 8.12C4.6 7.87 4.25 7.87 4.04 8.12L3.23 8.89C3.02 9.1 3.02 9.49 3.23 9.7L6.89 13.35Z" fill="#4A4A4A" fill-opacity="1.000000" fill-rule="evenodd"/>
</svg>
