<svg width="24.011719" height="13.005859" viewBox="0 0 24.0117 13.0059" fill="none" xmlns="http://www.w3.org/2000/svg" xmlns:xlink="http://www.w3.org/1999/xlink">
	<desc>
			Created with Pixso.
	</desc>
	<defs/>
	<path id="Rectangle 521" d="M23.56 2.57L13.79 12.26Q13.43 12.63 12.95 12.82Q12.5 13 12 13Q11.51 13 11.05 12.82Q10.58 12.63 10.21 12.26L0.44 2.57L2.56 0.44L12.33 10.13Q12.19 10 12 10Q11.81 10 11.68 10.13L21.44 0.44L23.56 2.57ZM21.44 0.46L21.44 0.44C22.04 -0.16 22.97 -0.15 23.57 0.44C24.16 1.04 24.15 1.97 23.56 2.57L23.53 2.57L21.44 0.46ZM0.47 2.57L0.44 2.57C-0.15 1.97 -0.16 1.04 0.44 0.44C1.03 -0.15 1.96 -0.16 2.56 0.44L2.56 0.46L0.47 2.57Z" fill="#E97522" fill-opacity="1.000000" fill-rule="evenodd"/>
</svg>
