<svg width="113.001953" height="35.000000" viewBox="0 0 113.002 35" fill="none" xmlns="http://www.w3.org/2000/svg" xmlns:xlink="http://www.w3.org/1999/xlink">
	<desc>
			Created with Pixso.
	</desc>
	<defs/>
	<path id="Vector" d="M31.5 24.84C31.5 27.65 30.53 30 28.61 31.9C26.69 33.79 24.3 34.74 21.45 34.74L13.02 34.74L13.02 21.31L18.46 21.31L18.46 29.85L21.45 29.85C22.88 29.85 24.06 29.39 24.96 28.48C25.87 27.56 26.32 26.35 26.32 24.84C26.32 23.34 25.87 22.12 24.96 21.21C24.06 20.29 22.88 19.84 21.45 19.84L10.04 19.84C8.44 19.86 6.86 19.52 5.43 18.83C5.34 18.79 5.25 18.74 5.16 18.69C4.31 18.24 3.54 17.67 2.87 17C1.05 15.21 0.02 12.83 0 10.33L0 9.57C0.08 6.92 1.03 4.7 2.87 2.89C4.79 0.99 7.18 0.04 10.04 0.04L18.46 0.04L18.46 13.48L13.02 13.48L13.02 4.94L10.04 4.94C8.6 4.94 7.43 5.39 6.52 6.31C5.61 7.22 5.16 8.43 5.16 9.94C5.16 11.45 5.61 12.66 6.52 13.57C7.43 14.49 8.6 14.95 10.04 14.95L21.45 14.95C24.3 14.95 26.69 15.89 28.61 17.79C30.53 19.68 31.5 22.03 31.5 24.84Z" fill="#FFFFFF" fill-opacity="1.000000" fill-rule="nonzero"/>
	<path id="Vector" d="M51.04 0L46.18 0L41.03 14.92L45.35 14.92L46.02 12.77L51.21 12.77L51.88 14.92L56.18 14.92L51.04 0ZM47.05 9.48L48.61 4.41L50.19 9.48L47.05 9.48Z" fill="#E97522" fill-opacity="1.000000" fill-rule="nonzero"/>
	<path id="Vector" d="M63.67 0L57.32 0L57.32 9.9L61.42 9.9L61.42 3.68L63.67 3.68C64.17 3.67 64.66 3.75 65.11 3.93C65.57 4.11 65.98 4.38 66.32 4.72C67.01 5.41 67.35 6.32 67.35 7.46C67.35 8.6 67.01 9.51 66.32 10.2C65.98 10.54 65.57 10.81 65.11 10.99C64.66 11.17 64.17 11.25 63.67 11.23L57.32 11.23L57.32 14.92L63.67 14.92C65.83 14.92 67.63 14.21 69.08 12.78C70.53 11.35 71.25 9.58 71.25 7.46C71.25 5.34 70.53 3.57 69.08 2.14C67.63 0.71 65.83 0 63.67 0Z" fill="#E97522" fill-opacity="1.000000" fill-rule="nonzero"/>
	<path id="Vector" d="M79.45 0L73.1 0L73.1 3.68L79.45 3.68C79.95 3.67 80.44 3.75 80.89 3.93C81.35 4.11 81.76 4.38 82.1 4.72C82.79 5.41 83.13 6.32 83.13 7.46C83.13 8.6 82.79 9.51 82.1 10.2C81.76 10.54 81.35 10.81 80.89 10.99C80.44 11.17 79.95 11.25 79.45 11.23L77.2 11.23L77.2 5.01L73.1 5.01L73.1 14.92L79.45 14.92C81.61 14.92 83.41 14.21 84.86 12.78C86.3 11.35 87.03 9.58 87.03 7.46C87.03 5.34 86.3 3.57 84.86 2.14C83.41 0.71 81.61 0 79.45 0Z" fill="#E97522" fill-opacity="1.000000" fill-rule="nonzero"/>
	<path id="Vector" d="M47.09 19.75C47.82 19.73 48.55 19.85 49.23 20.1C49.91 20.36 50.53 20.74 51.06 21.22C52.13 22.2 52.66 23.45 52.66 24.97C52.66 26.49 52.13 27.75 51.06 28.73C50.53 29.21 49.91 29.59 49.23 29.84C48.55 30.09 47.82 30.22 47.09 30.2L45.02 30.2L45.02 34.67L41.03 34.67L41.03 19.75L47.09 19.75ZM47.09 26.57C47.3 26.58 47.51 26.54 47.7 26.46C47.9 26.38 48.07 26.27 48.22 26.12C48.37 25.97 48.49 25.79 48.57 25.59C48.65 25.4 48.68 25.18 48.67 24.97C48.68 24.76 48.65 24.55 48.57 24.36C48.49 24.16 48.37 23.98 48.22 23.83C48.07 23.69 47.89 23.58 47.7 23.5C47.51 23.43 47.3 23.39 47.09 23.4L45.02 23.4L45.02 26.57L47.09 26.57Z" fill="#B1B1B1" fill-opacity="1.000000" fill-rule="nonzero"/>
	<path id="Vector" d="M62.6 19.75L66.57 19.75L66.57 34.68L62.6 34.68L62.6 28.94L58.21 28.94L58.21 34.68L54.22 34.68L54.22 19.75L58.21 19.75L58.21 25.27L62.6 25.27L62.6 19.75Z" fill="#B1B1B1" fill-opacity="1.000000" fill-rule="nonzero"/>
	<path id="Vector" d="M82.43 32.75C80.87 34.19 78.79 35 76.62 35C74.46 35 72.37 34.19 70.82 32.75C70.04 32.03 69.43 31.17 69.03 30.22C68.62 29.26 68.42 28.24 68.44 27.21C68.42 26.18 68.62 25.16 69.03 24.21C69.43 23.26 70.04 22.4 70.82 21.68C72.37 20.24 74.45 19.43 76.62 19.43C78.79 19.43 80.87 20.24 82.43 21.68C83.2 22.4 83.81 23.26 84.22 24.21C84.63 25.16 84.82 26.18 84.8 27.21C84.82 28.24 84.63 29.26 84.22 30.22C83.81 31.17 83.2 32.03 82.43 32.75ZM73.61 30.12C74.32 30.85 75.27 31.31 76.3 31.43C77.32 31.56 78.36 31.34 79.24 30.81C80.11 30.28 80.76 29.47 81.08 28.53C81.4 27.59 81.37 26.57 80.99 25.65C80.61 24.73 79.91 23.96 79 23.49C78.09 23.01 77.04 22.85 76.02 23.03C75.01 23.22 74.09 23.74 73.43 24.5C72.77 25.26 72.41 26.22 72.41 27.21C72.39 27.75 72.49 28.29 72.69 28.79C72.9 29.29 73.21 29.74 73.61 30.12Z" fill="#B1B1B1" fill-opacity="1.000000" fill-rule="nonzero"/>
	<path id="Vector" d="M96.57 19.75L96.57 23.44L92.71 23.44L92.71 34.68L88.72 34.68L88.72 23.44L84.87 23.44L84.87 19.75L96.57 19.75Z" fill="#B1B1B1" fill-opacity="1.000000" fill-rule="nonzero"/>
	<path id="Vector" d="M110.62 32.75C109.07 34.19 106.98 35 104.82 35C102.65 35 100.57 34.19 99.01 32.75C98.24 32.03 97.63 31.17 97.22 30.22C96.81 29.26 96.61 28.24 96.64 27.21C96.61 26.18 96.81 25.16 97.22 24.21C97.63 23.26 98.24 22.4 99.01 21.68C100.57 20.24 102.65 19.43 104.82 19.43C106.98 19.43 109.07 20.24 110.62 21.68C111.39 22.4 112 23.26 112.41 24.21C112.82 25.16 113.02 26.18 113 27.21C113.02 28.24 112.82 29.26 112.41 30.22C112 31.17 111.39 32.03 110.62 32.75ZM101.81 30.12C102.52 30.85 103.46 31.31 104.49 31.43C105.52 31.56 106.56 31.34 107.43 30.81C108.31 30.28 108.96 29.47 109.28 28.53C109.6 27.59 109.57 26.57 109.18 25.65C108.81 24.73 108.1 23.96 107.19 23.49C106.29 23.01 105.23 22.85 104.22 23.03C103.2 23.22 102.28 23.74 101.62 24.5C100.97 25.26 100.6 26.22 100.6 27.21C100.59 27.75 100.68 28.29 100.89 28.79C101.1 29.29 101.41 29.74 101.81 30.12Z" fill="#B1B1B1" fill-opacity="1.000000" fill-rule="nonzero"/>
</svg>
